# xmcd
#
# Track frame offsets:
#	150
#	16676
#	34236
#	55655
#	72972
#	94787
#	118061
#	138803
#	154668
#	172789
#
# Disc length: 2634 seconds
#
# Revision: 1
# Processed by: cddbd v1.5.2PL0 Copyright (c) Steve Scherf et al.
# Submitted via: audiograbber 1.83.01
#
DISCID=730a480a
DTITLE=Knut Anders Sørum - Ting Flyt
DYEAR=2013
DGENRE=Blues
TTITLE0=Ting Flyt
TTITLE1=Gå Frå Meg
TTITLE2=Monokrom
TTITLE3=Bli Ved Deg
TTITLE4=Je Savner Deg
TTITLE5=Å Mæ Å Bære Vara Kul?
TTITLE6=Rømmer I Frå
TTITLE7=Meg Og Et Gatelys
TTITLE8=Udyktig I Kjærlighet
TTITLE9=Bit Tenna Hoppes Og Jag
EXTD=
EXTT0=
EXTT1=
EXTT2=
EXTT3=
EXTT4=
EXTT5=
EXTT6=
EXTT7=
EXTT8=
EXTT9=
PLAYORDER=
